<?xml version="1.0" standalone="no"?>
<!DOCTYPE svg PUBLIC "-//W3C//DTD SVG 20010904//EN"
 "http://www.w3.org/TR/2001/REC-SVG-20010904/DTD/svg10.dtd">
<svg version="1.0" xmlns="http://www.w3.org/2000/svg"
 width="512.000000pt" height="512.000000pt" viewBox="0 0 512.000000 512.000000"
 preserveAspectRatio="xMidYMid meet">

<g transform="translate(0.000000,512.000000) scale(0.100000,-0.100000)"
fill="#000000" stroke="none">
<path d="M2410 5044 c-166 -43 -330 -175 -402 -324 -88 -181 -86 -408 7 -568
17 -29 20 -44 12 -46 -278 -74 -559 -221 -784 -410 -847 -708 -987 -1942 -320
-2826 275 -365 687 -636 1140 -750 976 -246 1994 262 2391 1193 237 557 216
1190 -59 1732 -109 215 -231 381 -406 550 -255 246 -533 405 -896 511 -8 2 -5
16 12 46 37 68 64 159 71 245 24 294 -179 574 -471 648 -74 19 -222 18 -295
-1z m322 -97 c174 -63 306 -210 348 -386 18 -76 8 -231 -18 -300 -12 -30 -38
-79 -58 -110 -34 -51 -36 -57 -23 -80 11 -19 32 -29 99 -47 473 -126 889 -431
1155 -849 69 -109 156 -294 200 -428 237 -722 55 -1493 -481 -2031 -479 -481
-1181 -680 -1849 -524 -411 95 -807 344 -1080 678 -312 382 -477 904 -437
1386 15 182 44 329 97 491 205 622 721 1110 1353 1277 68 18 90 28 101 47 12
23 10 29 -28 88 -57 88 -81 172 -81 280 0 157 45 266 155 376 80 80 142 117
247 145 95 26 206 21 300 -13z"/>
<path d="M2448 4894 c-209 -50 -348 -230 -348 -448 0 -140 53 -267 141 -337
36 -29 45 -31 95 -27 79 7 88 19 92 131 3 111 -8 141 -56 145 l-32 3 0 65 0
64 220 0 220 0 0 -64 0 -65 -32 -3 c-48 -4 -59 -34 -56 -145 4 -112 13 -124
92 -131 50 -4 59 -2 95 27 121 96 176 317 120 483 -77 231 -313 360 -551 302z
m275 -107 c169 -83 253 -275 198 -454 -23 -77 -85 -166 -119 -171 -21 -3 -22
0 -22 55 0 56 1 59 30 70 39 15 50 46 50 143 0 69 -3 82 -24 107 l-24 28 -252
0 -252 0 -24 -28 c-21 -25 -24 -38 -24 -107 0 -97 11 -128 50 -143 29 -11 30
-14 30 -70 0 -55 -1 -58 -22 -55 -34 5 -96 94 -119 171 -60 194 44 401 235
469 79 28 214 21 289 -15z"/>
<path d="M2430 3511 c-6 -12 -10 -96 -10 -205 0 -154 3 -187 16 -200 19 -19
38 -20 52 -3 6 7 13 60 14 118 l3 104 40 -73 c90 -166 105 -181 139 -146 13
13 16 46 16 200 0 191 -6 224 -39 224 -32 0 -40 -24 -43 -131 l-3 -104 -54
100 c-30 55 -61 108 -69 118 -20 23 -49 22 -62 -2z"/>
<path d="M2487 2420 c-85 -21 -163 -84 -205 -164 -23 -44 -27 -63 -27 -136 0
-75 4 -91 30 -138 102 -187 327 -230 478 -92 73 66 101 130 101 230 1 89 -23
145 -86 210 -71 74 -198 112 -291 90z m152 -178 c92 -68 93 -189 2 -249 -95
-64 -231 10 -231 125 0 56 43 118 100 141 34 15 98 6 129 -17z"/>
<path d="M1170 2375 c-19 -23 10 -389 32 -412 23 -22 42 -12 84 47 l36 50 40
-55 c21 -30 45 -55 53 -55 22 0 45 29 45 58 1 15 7 99 14 187 8 99 10 167 4
178 -11 20 -41 22 -57 3 -10 -12 -29 -167 -31 -246 0 -25 0 -25 -26 8 -31 38
-58 41 -80 7 -9 -14 -20 -25 -24 -25 -4 0 -11 53 -15 117 -3 65 -11 126 -16
135 -12 22 -42 23 -59 3z"/>
<path d="M3690 2371 c-6 -12 -10 -96 -10 -205 0 -154 3 -187 16 -200 12 -13
39 -16 124 -16 85 0 112 3 124 16 19 18 19 20 6 45 -9 17 -22 19 -100 19 l-90
0 0 70 0 70 49 0 c50 0 81 17 81 44 0 23 -24 35 -75 38 -46 3 -50 5 -53 31
l-3 27 85 0 c64 0 88 4 100 16 19 18 19 20 6 45 -10 17 -22 19 -130 19 -108 0
-120 -2 -130 -19z"/>
<path d="M2474 1111 c-60 -36 -66 -116 -13 -167 23 -22 41 -28 86 -32 32 -3
61 -10 65 -16 14 -20 9 -103 -6 -115 -8 -7 -31 -11 -52 -9 -30 2 -41 9 -54 33
-38 69 -99 23 -65 -48 29 -62 126 -87 200 -52 46 22 60 56 60 141 0 59 -4 78
-22 103 -22 29 -22 30 -3 36 45 14 26 101 -29 129 -42 22 -128 21 -167 -3z
m147 -93 l14 -33 -57 3 c-60 4 -83 18 -72 46 4 12 19 16 53 16 43 0 48 -3 62
-32z"/>
</g>
</svg>
