<?xml version="1.0" standalone="no"?>
<!DOCTYPE svg PUBLIC "-//W3C//DTD SVG 20010904//EN"
 "http://www.w3.org/TR/2001/REC-SVG-20010904/DTD/svg10.dtd">
<svg version="1.0" xmlns="http://www.w3.org/2000/svg"
 width="512.000000pt" height="512.000000pt" viewBox="0 0 512.000000 512.000000"
 preserveAspectRatio="xMidYMid meet">

<g transform="translate(0.000000,512.000000) scale(0.100000,-0.100000)"
fill="#000000" stroke="none">
<path d="M512 5103 c-11 -10 -30 -46 -42 -79 l-22 -62 -101 -4 c-83 -3 -112
-8 -157 -29 -202 -95 -250 -357 -94 -513 64 -64 132 -90 251 -94 l101 -4 24
-67 c17 -45 32 -70 49 -78 15 -8 70 -13 151 -13 l127 0 3 -277 c4 -331 -3
-310 149 -468 132 -138 132 -131 -11 -281 -91 -96 -112 -124 -125 -167 -13
-44 -15 -185 -15 -1029 l0 -978 -134 0 c-157 0 -163 -3 -196 -96 l-22 -62
-101 -4 c-83 -3 -112 -8 -157 -29 -202 -95 -250 -357 -94 -513 64 -64 132 -90
251 -94 l101 -4 24 -67 c17 -45 32 -70 49 -78 35 -18 4043 -18 4078 0 13 6 30
30 38 52 38 104 22 92 136 97 83 3 112 8 157 29 202 95 250 357 94 513 -64 64
-132 90 -251 94 l-101 4 -22 62 c-33 93 -39 96 -196 96 l-134 0 -2 998 -3 997
-23 43 c-13 24 -68 90 -123 147 -131 137 -131 133 0 270 152 158 145 137 149
468 l3 277 127 0 c147 0 168 8 189 65 38 104 22 92 136 97 83 3 112 8 157 29
202 95 250 357 94 513 -64 64 -132 90 -251 94 l-101 4 -22 62 c-12 33 -31 69
-42 79 -19 16 -131 17 -2048 17 -1917 0 -2029 -1 -2048 -17z m530 -265 c5
-142 23 -193 93 -263 65 -66 125 -90 225 -90 100 0 160 24 225 90 70 70 88
121 93 263 l4 122 838 0 838 0 4 -122 c5 -142 23 -193 93 -263 65 -66 125 -90
225 -90 100 0 160 24 225 90 70 70 88 121 93 263 l4 122 251 -2 252 -3 19 -75
c27 -107 27 -373 0 -480 l-19 -75 -1945 0 -1944 0 -23 95 c-13 52 -26 131 -29
175 -7 86 8 234 31 294 7 20 16 44 19 54 5 15 24 17 215 17 l209 0 4 -122z
m478 29 c0 -117 -22 -168 -90 -204 -54 -29 -84 -29 -140 0 -67 33 -90 85 -90
204 l0 93 160 0 160 0 0 -93z m2320 0 c0 -117 -22 -168 -90 -204 -54 -29 -84
-29 -140 0 -67 33 -90 85 -90 204 l0 93 160 0 160 0 0 -93z m-3435 -227 l0
-160 -55 0 c-79 0 -138 32 -167 90 -29 56 -29 84 0 140 29 58 88 90 167 90
l55 0 0 -160z m4465 138 c33 -17 51 -35 68 -68 28 -56 28 -86 -1 -140 -31 -58
-89 -90 -166 -90 l-56 0 0 160 0 160 55 0 c38 0 70 -7 100 -22z m-710 -879 l0
-260 -99 -104 c-122 -126 -145 -167 -145 -255 0 -88 23 -129 145 -255 l99
-104 0 -980 0 -981 -1600 0 -1600 0 0 981 0 980 99 104 c122 126 145 167 145
255 0 88 -23 129 -145 255 l-99 104 0 260 0 261 1600 0 1600 0 0 -261z m-631
-3115 c-23 -27 -163 -92 -267 -123 -529 -157 -1348 -99 -1667 118 l-30 21 989
0 c901 0 987 -1 975 -16z m994 -64 c11 -45 20 -128 23 -205 4 -109 1 -148 -18
-240 l-23 -110 -1945 0 -1945 0 -19 75 c-27 107 -28 353 -2 468 l19 82 382 0
382 0 11 -24 c51 -113 236 -219 498 -286 220 -57 369 -74 669 -74 276 -1 354
6 565 46 296 56 533 179 605 312 l20 36 380 -2 380 -3 18 -75z m-4118 -240 l0
-160 -55 0 c-79 0 -138 32 -167 90 -29 56 -29 84 0 140 29 58 88 90 167 90
l55 0 0 -160z m4465 138 c33 -17 51 -35 68 -68 28 -56 28 -86 -1 -140 -31 -58
-89 -90 -166 -90 l-56 0 0 160 0 160 55 0 c38 0 70 -7 100 -22z"/>
<path d="M2499 3813 c-14 -16 -59 -81 -100 -145 -41 -65 -79 -118 -85 -118 -5
0 -77 30 -158 66 -152 68 -176 72 -210 38 -9 -8 -16 -29 -16 -45 0 -34 126
-640 141 -680 6 -15 22 -31 35 -38 17 -8 159 -11 464 -11 l439 0 25 23 c23 19
34 61 101 361 64 286 74 344 65 366 -11 26 -46 50 -73 50 -7 0 -79 -29 -160
-65 -81 -36 -154 -65 -161 -65 -7 0 -55 63 -106 139 -50 77 -99 142 -107 145
-34 13 -70 5 -94 -21z m135 -309 c70 -107 105 -144 135 -144 9 0 65 23 125 50
60 28 109 50 110 50 3 0 -82 -376 -90 -402 -5 -17 -31 -18 -359 -18 l-353 0
-16 73 c-39 179 -73 347 -70 347 2 0 52 -22 112 -50 60 -27 119 -50 131 -50
29 0 44 18 126 143 39 58 72 107 75 107 3 0 36 -48 74 -106z"/>
</g>
</svg>
